# xmcd CD database file
#
# Track frame offsets:
#	150
#	17607
#	36640
#	62782
#	84835
#	104005
#	130895
#	151517
#	170095
#	187862
#	204457
#	224282
#
# Disc length: 3284 seconds
#
# Revision: 0
# Processed by: cddbd v1.5PL3 Copyright (c) Steve Scherf et al.
# Submitted via: CDex 1.50
#
DISCID=9f0cd20c
DTITLE=内田有紀 - Present
DYEAR=1997
DGENRE=JPop
TTITLE0=TENCAを取ろう！
TTITLE1=明日は明日の風が吹く
TTITLE2=Only You
TTITLE3=BABY’S GROWING UP
TTITLE4=幸せになりたい
TTITLE5=EVER＆EVER
TTITLE6=プレゼント
TTITLE7=「アイシテル」
TTITLE8=Da．i．su．ki．
TTITLE9=Uchida no Rock’n’Roll
TTITLE10=美人もブスも
TTITLE11=ホントノコト
EXTD=YEAR: 1997/12/03
EXTT0=
EXTT1=
EXTT2=
EXTT3=
EXTT4=
EXTT5=
EXTT6=
EXTT7=
EXTT8=
EXTT9=
EXTT10=
EXTT11=
PLAYORDER=
